<?xml version="1.0" encoding="UTF-8"?>
<!-- Generator: Adobe Illustrator 22.0.0, SVG Export Plug-In . SVG Version: 6.00 Build 0)  -->
<svg version="1.1" id="Ebene_1" xmlns="http://www.w3.org/2000/svg" xmlns:xlink="http://www.w3.org/1999/xlink" x="0px" y="0px" viewBox="0 0 595.3 841.9" style="enable-background:new 0 0 595.3 841.9;" xml:space="preserve">
<style type="text/css">
	.st0{fill:#3C3C3B;}
	.st1{fill:#575756;}
	.st2{fill:#706F6F;}
	.st3{fill:#9D9D9C;}
	.st4{fill:#878787;}
</style>
<polygon points="358.4,408.2 326.2,408.2 310.1,436.1 326.2,464 358.4,464 374.5,436.1 "/>
<polygon class="st0" points="408.7,436.7 376.5,436.7 360.4,464.6 376.5,492.5 408.7,492.5 424.8,464.6 "/>
<polygon class="st1" points="408.7,379 376.5,379 360.4,406.9 376.5,434.8 408.7,434.8 424.8,406.9 "/>
<polygon class="st2" points="458.8,408.2 426.6,408.2 410.5,436.1 426.6,464 458.8,464 474.9,436.1 "/>
<polygon class="st3" points="509.7,436.7 477.5,436.7 461.4,464.6 477.5,492.5 509.7,492.5 525.8,464.6 "/>
<polygon class="st4" points="458.8,350.2 426.6,350.2 410.5,378.1 426.6,405.9 458.8,405.9 474.9,378.1 "/>
<g>
	<path d="M106.7,382.1h10.8v82.8H94.5c-8.1,0-14.5-2.5-19.3-7.6S68,445.3,68,436.8c0-8,2.5-14.6,7.6-19.8c5-5.2,11.5-7.8,19.3-7.8   c3.6,0,7.6,0.8,11.9,2.3V382.1z M106.7,455.7v-34.6c-3.4-1.7-6.8-2.5-10.2-2.5c-5.4,0-9.7,1.8-12.8,5.3c-3.2,3.5-4.8,8.3-4.8,14.2   c0,5.6,1.4,9.9,4.1,13c1.7,1.8,3.4,3,5.3,3.7c1.9,0.6,5.2,0.9,10,0.9H106.7z"/>
	<path d="M143,410.4v6.9c4.8-5.3,10.3-8,16.4-8c3.4,0,6.6,0.9,9.5,2.6c2.9,1.8,5.1,4.2,6.7,7.2c1.5,3.1,2.3,7.9,2.3,14.5v31.2H167   v-31.1c0-5.6-0.9-9.6-2.5-11.9c-1.7-2.4-4.5-3.6-8.5-3.6c-5.1,0-9.4,2.5-13,7.6v38.9h-11v-54.5H143z"/>
	<path d="M228.3,381h4.9v46.5h9.2v10.1h-9.2v27.3h-11.6v-27.3h-35v-5.1L228.3,381z M221.6,427.5v-24l-19.2,24H221.6z"/>
	<path d="M270.9,453.5h31.5v11.4h-52.4v-0.8l5-5.9c7.8-9.6,14-17.8,18.6-24.5c4.6-6.7,7.6-11.8,9-15.2c1.4-3.4,2.1-6.8,2.1-10.2   c0-4.7-1.3-8.4-4-11.2c-2.6-2.8-6.2-4.2-10.5-4.2c-3.3,0-6.6,1-9.8,2.9c-3.2,2-6.1,4.7-8.7,8.3v-15.1c6.4-5.3,13.1-7.9,19.9-7.9   c7.2,0,13.2,2.4,17.9,7.2c4.7,4.8,7,10.9,7,18.4c0,3.3-0.6,6.9-1.7,10.6c-1.2,3.8-3.2,8.1-6.2,13c-3,4.9-8,11.6-15.1,20.1   L270.9,453.5z"/>
</g>
</svg>