<?xml version="1.0" encoding="UTF-8"?>
<svg id="Layer_1" data-name="Layer 1" xmlns="http://www.w3.org/2000/svg" viewBox="0 0 614.96 314.7">
  <defs>
    <style>
      .cls-1 {
        fill: #fff;
      }

      .cls-2 {
        fill: #428797;
      }
    </style>
  </defs>
  <rect class="cls-2" width="614.96" height="314.7" rx="46.51" ry="46.51"/>
  <g>
    <g>
      <path class="cls-1" d="m370.29,218.95c1.72-1.42,3.26-2.11,4.58-2.05,2.84.12,3.85,2.11,3.97,3.31-.65.23-13.44,4.52-13.98,4.7-.2-.2-.42-.45-.7-.74.68-.57,6.12-5.22,6.12-5.22Z"/>
      <path class="cls-1" d="m323.23,246.14c0,14.39,6.33,21.69,18.83,21.69,8.24,0,13.25-3.65,13.46-3.8l.4-.29v-19.78h-17.23v5.52h10.22v11.2c-1.02.59-3.55,1.63-7.22,1.63-7.38,0-10.98-5.29-10.98-16.17,0-6.23,1.77-13.64,10.21-13.64,5.61,0,7.61,3.26,7.61,6.33v.98h7.66v-.98c0-7.09-6.16-11.86-15.34-11.86-11.19,0-17.6,6.99-17.6,19.17Z"/>
      <path class="cls-1" d="m383.13,227.57h-22.59v39.65h24.15v-5.51h-17.13v-12.45h15.78v-5.51h-15.78v-10.66h16.56v-5.52h-.99Z"/>
      <path class="cls-1" d="m484.93,227.57h-34.34v29.38c-2.81-4.87-16.94-29.38-16.94-29.38h-8.01v39.65h6.75v-29.26c2.81,4.85,16.94,29.26,16.94,29.26h8.02s0-32.27,0-34.14h10.89v34.14h7.01v-34.14h10.67v-5.52h-.99Z"/>
      <path class="cls-1" d="m408.99,227.57h-7.5l-14.97,39.65h7.15s3.91-10.49,4.34-11.62h14.54c.43,1.13,4.47,11.62,4.47,11.62h7.15l-15.17-39.65Zm-8.92,22.5c.68-1.93,4-11.43,5.2-14.85,1.19,3.42,4.53,12.91,5.21,14.85h-10.41Z"/>
    </g>
    <path class="cls-1" d="m551.66,189.83c-26.09-32.3-131.76,13.33-160.17,25.34-2.05.86-4.67.67-6.15-2.28,1.12,2.84,3.49,4.01,6.39,2.84,37.78-15.09,128.85-47.83,151.64-17.94,10.31,13.52,7.42,30.21-3.86,53.59-.54,1.01-.89,1.67-.96,1.81-.03.07-.07.12-.11.18-.04.06-.07.13-.11.18-.87,1.41-1.97,2.18-3.08,2.49,1.3-.07,2.69-.7,3.75-2.36.27-.43.64-1.02,1.07-1.75h0c16.72-27.83,22.48-48.64,11.59-62.12Z"/>
    <path class="cls-1" d="m531.81,254.95c-.38-.32-5.06-4.53-9.75-8.95-24.81-23.37-99.58-95.69-132.27-76.7-9.21,5.35-10.8,20.93-5.09,41.72.02.04.03.07.04.11h0c.08.28.15.56.24.83.62,2.16,2.19,3.53,4.08,3.65-1.45-.37-2.62-1.45-3.23-3.1-.09-.22-.17-.46-.24-.69-.1-.36-.19-.73-.29-1.11h0c-.06-.24-.11-.48-.15-.72-3.04-17.62.61-29.21,7.74-33.89,26.19-17.2,89.19,37.03,120.76,64.34,7.23,6.26,15.37,13.21,17.93,15.14,3.63,2.74,6.57-.4,7.31-1.68-1.12,1.67-4.23,3.4-7.06,1.06Z"/>
  </g>
  <g>
    <path class="cls-1" d="m66.37,40.93h18.26v102.06h-26.4V49.07c0-4.49,3.65-8.14,8.14-8.14Z"/>
    <path class="cls-1" d="m197.77,40.93h18.26v102.06h-26.4V49.07c0-4.49,3.65-8.14,8.14-8.14Z"/>
    <path class="cls-1" d="m327.94,40.93h18.26v102.06h-26.4V49.07c0-4.49,3.65-8.14,8.14-8.14Z"/>
    <path class="cls-1" d="m451.5,40.93h26.4v102.06h-18.26c-4.49,0-8.14-3.65-8.14-8.14V40.93h0Z"/>
    <path class="cls-1" d="m281.73,40.93h-56.41v27.53h46.73c4.27,0,7.73,3.46,7.73,7.73v16.08h-54.46v27.53h54.46v23.19h26.4v-77.61c0-13.5-10.94-24.45-24.45-24.45Z"/>
    <rect class="cls-1" x="486.45" y="115.46" width="70.27" height="27.53"/>
    <rect class="cls-1" x="486.45" y="42.12" width="70.27" height="27.53"/>
    <rect class="cls-1" x="486.45" y="81.38" width="64.37" height="22.35"/>
    <path class="cls-1" d="m175.93,142.83l-13.02-29.22c7.18-2.25,12.39-8.96,12.39-16.88v-38.41c0-9.77-7.92-17.69-17.69-17.69h-64.3v27.53h46.6c4.34,0,7.86,3.52,7.86,7.86v7.93c0,4.52-3.66,8.18-8.18,8.18h-46.28v22.28h35.16c3.24,0,6.17,1.9,7.49,4.86l10.5,23.55h29.48Z"/>
    <path class="cls-1" d="m438.11,142.83l-13.02-29.22c7.18-2.25,12.39-8.96,12.39-16.88v-38.41c0-9.77-7.92-17.69-17.69-17.69h-64.3v27.53h46.6c4.34,0,7.86,3.52,7.86,7.86v7.93c0,4.52-3.66,8.18-8.18,8.18h-46.28v22.28h35.16c3.24,0,6.17,1.9,7.49,4.86l10.5,23.55h29.48Z"/>
  </g>
  <g>
    <rect class="cls-1" x="251.7" y="189.61" width="9.39" height="77.17"/>
    <rect class="cls-1" x="251.84" y="150.72" width="9.39" height="87.16" transform="translate(450.84 -62.23) rotate(90)"/>
    <polygon class="cls-1" points="86.95 189.61 82.78 189.61 72.86 189.61 63.46 189.61 58.24 189.61 58.24 199 63.46 199 63.46 257.35 58.7 257.35 58.7 266.74 63.46 266.74 63.46 266.78 72.86 266.78 72.86 266.74 78.05 266.74 78.05 257.35 72.86 257.35 72.86 237.86 77.64 237.86 77.64 247.32 82.87 247.32 82.87 217.94 77.64 217.94 77.64 228.47 72.86 228.47 72.86 199 82.78 199 82.78 208.57 86.95 208.57 86.95 218.82 92.17 218.82 92.17 208.57 92.17 199 92.17 189.61 86.95 189.61"/>
    <polygon class="cls-1" points="126.07 218.61 126.07 209.21 111.54 209.21 111.54 218.61 107.05 218.61 107.05 209.21 97.14 209.21 97.14 218.61 102.14 218.61 102.14 228 102.14 266.78 111.54 266.78 111.54 228 116.17 228 116.17 218.61 122.22 218.61 122.22 237.57 131.62 237.57 131.62 218.61 126.07 218.61"/>
    <polygon class="cls-1" points="241 218.61 241 209.21 226.47 209.21 226.47 218.61 221.99 218.61 221.99 209.21 212.07 209.21 212.07 218.61 217.07 218.61 217.07 228 217.07 266.78 226.47 266.78 226.47 228 231.11 228 231.11 218.61 237.16 218.61 237.16 237.57 246.55 237.57 246.55 218.61 241 218.61"/>
    <polygon class="cls-1" points="294.29 218.61 294.29 209.21 279.76 209.21 279.76 218.61 275.28 218.61 275.28 209.21 265.36 209.21 265.36 218.61 270.37 218.61 270.37 228 270.37 266.78 279.76 266.78 279.76 228 284.4 228 284.4 218.61 290.45 218.61 290.45 237.57 299.84 237.57 299.84 218.61 294.29 218.61"/>
    <path class="cls-1" d="m159.93,247.65v9.5h-14.69v-19.48h19.51v-.02h3.84v-19.06h-3.42v-9.39h-24.33v9.39h-4.99v38.55h4.5v9.39h24.33v-9.39h4.65v-9.5h-9.39Zm-.74-29.05v9.68h-13.95v-9.68h13.95Z"/>
    <path class="cls-1" d="m198.74,247.65v9.5h-14.69v-19.48h19.51v-.02h3.84v-19.06h-3.42v-9.39h-24.33v9.39h-4.99v38.55h4.5v9.39h24.33v-9.39h4.65v-9.5h-9.39Zm-.74-29.05v9.68h-13.95v-9.68h13.95Z"/>
  </g>
</svg>