<?xml version="1.0" encoding="UTF-8" standalone="no"?>
<svg
   xmlns:dc="http://purl.org/dc/elements/1.1/"
   xmlns:cc="http://creativecommons.org/ns#"
   xmlns:rdf="http://www.w3.org/1999/02/22-rdf-syntax-ns#"
   xmlns:svg="http://www.w3.org/2000/svg"
   xmlns="http://www.w3.org/2000/svg"
   xmlns:sodipodi="http://sodipodi.sourceforge.net/DTD/sodipodi-0.dtd"
   xmlns:inkscape="http://www.inkscape.org/namespaces/inkscape"
   width="70"
   height="70"
   viewBox="0 0 18.520833 18.520834"
   version="1.1"
   id="svg8"
   inkscape:version="1.0.1 (3bc2e813f5, 2020-09-07)"
   sodipodi:docname="router.svg">
  <defs
     id="defs2" />
  <sodipodi:namedview
     id="base"
     pagecolor="#ffffff"
     bordercolor="#666666"
     borderopacity="1.0"
     inkscape:pageopacity="0.0"
     inkscape:pageshadow="2"
     inkscape:zoom="2.8284271"
     inkscape:cx="-117.7796"
     inkscape:cy="42.688385"
     inkscape:document-units="mm"
     inkscape:current-layer="g1110"
     showgrid="false"
     units="px"
     inkscape:window-width="1920"
     inkscape:window-height="1057"
     inkscape:window-x="0"
     inkscape:window-y="0"
     inkscape:window-maximized="1"
     inkscape:document-rotation="0"
     inkscape:showpageshadow="false"
     showborder="true"
     inkscape:pagecheckerboard="false" />
  <metadata
     id="metadata5">
    <rdf:RDF>
      <cc:Work
         rdf:about="">
        <dc:format>image/svg+xml</dc:format>
        <dc:type
           rdf:resource="http://purl.org/dc/dcmitype/StillImage" />
        <dc:title />
      </cc:Work>
    </rdf:RDF>
  </metadata>
  <g
     inkscape:label="Layer 1"
     inkscape:groupmode="layer"
     id="layer1"
     transform="translate(0,-270.54165)">
    <g
       id="g1110">
      <g
         transform="matrix(1.1359691,0,0,1.0800725,-5.885186,-29.047492)"
         id="g904">
        <ellipse
           style="opacity:1;fill:#009bd8;fill-opacity:1;fill-rule:nonzero;stroke:#000000;stroke-width:0.265745;stroke-miterlimit:10;stroke-dasharray:none;stroke-dashoffset:0;stroke-opacity:1"
           id="path826-1"
           cx="13.395842"
           cy="286.50964"
           rx="7.5408292"
           ry="2.9293859" />
        <rect
           style="opacity:1;fill:#009bd8;fill-opacity:1;fill-rule:nonzero"
           id="rect845"
           width="15.111696"
           height="5.0055671"
           x="5.8744454"
           y="281.71002" />
        <ellipse
           style="opacity:1;fill:#009bd8;fill-opacity:1;fill-rule:nonzero;stroke:#000000;stroke-width:0.265228;stroke-miterlimit:10;stroke-dasharray:none;stroke-dashoffset:0;stroke-opacity:1"
           id="path826"
           cx="13.392711"
           cy="281.83246"
           rx="7.5108109"
           ry="2.9296446" />
        <path
           style="fill:none;stroke:#000000;stroke-width:0.264583px;stroke-linecap:butt;stroke-linejoin:miter;stroke-opacity:1"
           d="m 5.8744454,281.71002 v 5.00556"
           id="path847"
           inkscape:connector-curvature="0"
           sodipodi:nodetypes="cc" />
        <path
           style="fill:none;stroke:#000000;stroke-width:0.264583px;stroke-linecap:butt;stroke-linejoin:miter;stroke-opacity:1"
           d="m 20.915861,281.71106 v 5.00556"
           id="path847-9"
           inkscape:connector-curvature="0"
           sodipodi:nodetypes="cc" />
        <path
           style="fill:#ffffff;fill-opacity:1"
           d="m 14.410815,280.21713 -0.756797,-0.12394 2.226652,-0.72434 0.341717,1.14733 -0.70673,-0.11615 -1.069857,1.11008 -1.100672,-0.18347 z"
           id="path864"
           inkscape:connector-curvature="0"
           sodipodi:nodetypes="cccccccc" />
        <path
           style="fill:#ffffff;fill-opacity:1"
           d="m 10.381971,281.72612 -0.3844203,0.39447 2.3130943,-0.51386 -0.64105,-1.21698 -0.546068,0.56791 -3.4482612,-0.57404 -0.7413226,0.77297 z"
           id="path875"
           inkscape:connector-curvature="0"
           sodipodi:nodetypes="cccccccc" />
        <path
           style="fill:#ffffff;fill-opacity:1"
           d="m 12.368145,283.66794 0.879037,0.1461 -2.229737,0.54905 -0.322587,-0.97005 0.564306,0.0919 1.18339,-1.21646 1.11308,0.16813 c -0.444088,0.47435 -0.827258,0.86444 -1.187489,1.23133 z"
           id="path877"
           inkscape:connector-curvature="0"
           sodipodi:nodetypes="cccccccc" />
        <path
           style="fill:#ffffff;fill-opacity:1"
           d="m 19.020028,283.1569 -3.285832,-0.54735 -0.503409,0.53128 -0.620827,-1.15182 2.38125,-0.6842 -0.521797,0.54183 c 1.209955,0.19671 2.557845,0.42814 3.289141,0.54766 0,0 -0.170595,0.17004 -0.738526,0.7626 z"
           id="path879"
           inkscape:connector-curvature="0"
           sodipodi:nodetypes="ccccccsc" />
      </g>
      <path
         style="fill:#00ff00;stroke-width:0.0224688"
         d="m 5.7137338,275.43904 c 0.1131391,-0.10807 0.2010621,-0.20073 0.1953846,-0.20591 -0.00568,-0.005 -0.8835232,-0.14639 -1.9507677,-0.31377 l -1.9404447,-0.30435 0.4080902,-0.40444 c 0.2244494,-0.22244 0.4243998,-0.40384 0.4443344,-0.40312 0.019933,7.2e-4 0.9023621,0.13843 1.9609511,0.30599 l 1.9247074,0.30465 0.3087767,-0.30144 0.3087772,-0.30144 0.3520369,0.63935 c 0.1936208,0.35165 0.3491604,0.64187 0.3456442,0.64496 -0.00891,0.008 -2.5128641,0.53615 -2.5406351,0.53607 -0.01241,-3e-5 0.070006,-0.0885 0.1831448,-0.19655 z"
         id="path314" />
      <path
         style="fill:#00ff00;stroke-width:0.0224688"
         d="m 9.9249685,274.9004 c -0.3203274,-0.0517 -0.5911096,-0.0973 -0.6017392,-0.1012 -0.010633,-0.004 0.2497239,-0.2728 0.5785643,-0.59751 0.4876214,-0.48151 0.5901014,-0.59307 0.5556524,-0.60493 -0.02323,-0.008 -0.200369,-0.038 -0.393641,-0.0668 -0.1932733,-0.0287 -0.3512548,-0.0572 -0.3510708,-0.0633 2.965e-4,-0.01 0.4237688,-0.14243 1.9953798,-0.62504 l 0.440315,-0.13521 0.18564,0.59369 c 0.102101,0.32654 0.181621,0.59754 0.17671,0.60224 -0.0049,0.004 -0.181193,-0.0179 -0.391741,-0.0503 l -0.382813,-0.0588 -0.394766,0.38987 c -0.217122,0.21442 -0.493612,0.48471 -0.614422,0.60064 l -0.219656,0.21077 z"
         id="path316" />
      <path
         style="fill:#00ff00;stroke-width:0.0224688"
         d="m 13.83799,276.47426 -1.85405,-0.29563 -0.284481,0.28165 c -0.156465,0.15492 -0.289262,0.27181 -0.295108,0.25976 -0.0058,-0.0121 -0.159236,-0.28317 -0.34087,-0.6025 -0.274359,-0.48233 -0.324009,-0.58334 -0.293393,-0.59687 0.05575,-0.0246 2.528484,-0.69577 2.563472,-0.69577 0.01673,0 -0.09333,0.11798 -0.244592,0.26217 -0.151258,0.14419 -0.267779,0.26905 -0.258935,0.27746 0.0089,0.009 0.811956,0.14134 1.784688,0.29539 0.972734,0.15405 1.802719,0.28605 1.844411,0.29333 l 0.0758,0.0132 -0.405843,0.39869 c -0.223213,0.21928 -0.412866,0.40005 -0.421448,0.4017 -0.0086,0.002 -0.849927,-0.13002 -1.869655,-0.29261 z"
         id="path318" />
      <path
         style="fill:#00ff00;stroke-width:0.0224688"
         d="m 6.4592552,277.56355 c -0.1393206,-0.39824 -0.1687894,-0.50392 -0.140508,-0.50392 0.019684,0 0.1611032,0.0203 0.3142676,0.0451 l 0.2784806,0.0451 0.2081043,-0.20401 c 0.1144574,-0.11221 0.4180468,-0.40839 0.6746425,-0.65816 l 0.4665381,-0.45413 0.5994591,0.0872 c 0.3297024,0.0479 0.6058892,0.0872 0.6137485,0.0872 0.020435,0 -0.1342691,0.15739 -0.7598674,0.77302 -0.303467,0.29864 -0.5462939,0.54817 -0.5396152,0.55452 0.00668,0.006 0.2128591,0.0441 0.4581788,0.0838 0.2453195,0.0398 0.4304815,0.0784 0.411471,0.0859 -0.036332,0.0144 -2.369651,0.56228 -2.3943293,0.56228 -0.00785,0 -0.093608,-0.22676 -0.1905706,-0.50391 z"
         id="path320" />
      <path
         style="fill:#000000;stroke:#00ff00;stroke-width:0.0849216"
         d="m 8.9519833,283.40871 c -0.7894495,-0.0111 -1.8113147,-0.0876 -2.5623656,-0.19185 -2.2894683,-0.31768 -4.0380373,-0.95 -4.9054121,-1.77388 -0.2740717,-0.26033 -0.4091023,-0.44847 -0.49199541,-0.6855 -0.0468871,-0.13408 -0.0476437,-0.17095 -0.0476437,-2.32114 v -2.1849 l 0.0518468,0.0659 c 0.31961001,0.40594 0.87320481,0.80804 1.54780201,1.12423 2.800213,1.31248 7.7378477,1.61198 11.5232987,0.69895 1.204443,-0.29051 2.267777,-0.73148 2.949495,-1.22317 0.199445,-0.14386 0.510658,-0.43143 0.640261,-0.59163 l 0.06204,-0.0767 2.55e-4,2.18612 c 2.51e-4,2.15718 -3.91e-4,2.18792 -0.04772,2.32152 -0.431347,1.21744 -2.941621,2.24626 -6.238142,2.55669 -0.745878,0.0702 -1.6903552,0.1065 -2.4817164,0.0954 z"
         id="path1169" />
      <path
         style="fill:#000000;stroke:#00ff00;stroke-width:0.0849216"
         d="m 8.5141677,278.35009 c -1.5161602,-0.0736 -2.6601089,-0.2244 -3.8047267,-0.50162 -0.8018076,-0.1942 -1.3984794,-0.39645 -2.002091,-0.67864 -0.7738729,-0.3618 -1.3400848,-0.80661 -1.5764852,-1.23851 -0.13616263,-0.24877 -0.17012697,-0.38433 -0.15857019,-0.63289 0.0169271,-0.36409 0.15577799,-0.61464 0.54834469,-0.98943 0.50336,-0.48057 1.2093686,-0.85332 2.259608,-1.19299 2.4608446,-0.79587 5.9282214,-0.99522 8.9162107,-0.51263 2.342509,0.37834 4.112713,1.13744 4.74354,2.03413 0.410523,0.58354 0.329671,1.1397 -0.249731,1.71784 -1.00777,1.00558 -3.375537,1.7381 -6.314199,1.95342 -0.441491,0.0323 -1.9889188,0.0594 -2.3619003,0.0414 z m -0.5876004,-0.55747 c 0.6780353,-0.15812 1.2366098,-0.29112 1.2412765,-0.29556 0.012495,-0.0119 -0.056433,-0.0249 -0.5262487,-0.0988 -0.2340815,-0.0368 -0.4292856,-0.0705 -0.4337865,-0.0749 -0.00712,-0.006 0.2008801,-0.21296 1.1232058,-1.11338 0.1265215,-0.12352 0.1875175,-0.19801 0.1704296,-0.20814 -0.014637,-0.009 -0.3036732,-0.0548 -0.6423032,-0.1025 l -0.6156904,-0.0867 -0.6729932,0.65572 -0.672993,0.65571 -0.2631444,-0.0396 c -0.1447294,-0.0218 -0.2911699,-0.0448 -0.3254234,-0.0512 l -0.062279,-0.0116 0.1886693,0.53915 c 0.1476932,0.42205 0.1962508,0.53698 0.2235791,0.5292 0.0192,-0.005 0.5896666,-0.13932 1.2677015,-0.29743 z m 8.2246477,-1.41765 c 0.338066,-0.33312 0.40923,-0.41369 0.376351,-0.42613 -0.0223,-0.009 -0.828613,-0.13941 -1.791808,-0.29105 -0.963194,-0.15163 -1.779812,-0.28108 -1.814705,-0.28766 -0.06175,-0.0117 -0.05621,-0.0192 0.207386,-0.28546 0.148956,-0.15042 0.274107,-0.28222 0.278113,-0.29288 0.004,-0.0108 -0.0634,-2.5e-4 -0.149779,0.0231 -1.594204,0.43174 -2.526573,0.69358 -2.53387,0.71162 -0.01298,0.0321 0.666918,1.22636 0.698164,1.22636 0.01427,0 0.14963,-0.12351 0.300798,-0.27445 l 0.274851,-0.27445 1.807337,0.28859 c 0.994034,0.15871 1.834996,0.28961 1.868801,0.29087 0.05085,0.002 0.133479,-0.0687 0.478361,-0.4085 z m -9.3493547,-0.98038 c 0.7114843,-0.15061 1.2973102,-0.27735 1.3018355,-0.28165 0.00676,-0.006 -0.6953132,-1.29419 -0.7241434,-1.32825 -0.00488,-0.005 -0.1508115,0.12999 -0.3242849,0.30169 l -0.3154051,0.3122 -1.9240847,-0.30677 c -1.0582463,-0.16872 -1.9402992,-0.30695 -1.9601172,-0.30718 -0.034035,-4e-4 -0.8895361,0.82578 -0.8712438,0.84137 0.00473,0.004 0.8796252,0.14337 1.9442086,0.30962 1.0645828,0.16626 1.9402568,0.3058 1.9459409,0.3101 0.00568,0.004 -0.087434,0.1012 -0.2069312,0.21525 -0.1194966,0.11409 -0.2042428,0.20744 -0.1883242,0.20744 0.015917,0 0.6110654,-0.12323 1.3225495,-0.27382 z m 4.3389807,-0.98048 c 0.380075,-0.37528 0.609789,-0.58607 0.638692,-0.58607 0.02482,0 0.205651,0.0257 0.401835,0.057 0.196184,0.0313 0.360439,0.0535 0.36501,0.0491 0.01022,-0.01 -0.368699,-1.22019 -0.387677,-1.23824 -0.01253,-0.0119 -2.4245072,0.72137 -2.503908,0.76123 -0.049233,0.0247 -0.02732,0.0299 0.401486,0.0957 0.201806,0.031 0.37181,0.0609 0.377787,0.0666 0.006,0.005 -0.174693,0.19341 -0.401486,0.41717 -0.226794,0.22376 -0.4931776,0.48964 -0.5919643,0.59084 l -0.1796129,0.18401 0.07592,0.0133 c 0.4340455,0.0757 1.1230412,0.18185 1.1616072,0.17898 0.03098,-0.002 0.265229,-0.21738 0.642311,-0.58971 z"
         id="path1171" />
    </g>
  </g>
</svg>
